<?xml version="1.0" encoding="utf-8"?>
<!-- Generator: Adobe Illustrator 18.0.0, SVG Export Plug-In . SVG Version: 6.00 Build 0)  -->
<!DOCTYPE svg PUBLIC "-//W3C//DTD SVG 1.1//EN" "http://www.w3.org/Graphics/SVG/1.1/DTD/svg11.dtd">
<svg version="1.1" id="Layer_1" xmlns="http://www.w3.org/2000/svg" xmlns:xlink="http://www.w3.org/1999/xlink" x="0px" y="0px"
	 viewBox="0 0 704.7 193" enable-background="new 0 0 704.7 193" xml:space="preserve">
<g>
	<defs>
		<rect id="SVGID_1_" x="27" y="0" width="649.9" height="121.2"/>
	</defs>
	<clipPath id="SVGID_2_">
		<use xlink:href="#SVGID_1_"  overflow="visible"/>
	</clipPath>
	<path clip-path="url(#SVGID_2_)" fill-rule="evenodd" clip-rule="evenodd" fill="#FEFEFE" d="M302.7-0.1c32.9,0,65.8,0,98.6,0
		c0,34.7,0,69.4,0,104.3c-1.5-1.6-2.8-2.9-4.1-4.3c-2.8-2.9-5.5-5.8-8.3-8.8c-3.1-3.4-6.3-6.7-9.5-10c-2.5-2.6-4.9-5.3-7.4-7.9
		c-3-3.2-6-6.3-9-9.5c-2.7-2.8-5.3-5.7-8-8.5c-2.9-3.1-5.8-6.1-8.7-9.2c-2.8-2.9-5.6-5.9-8.4-8.8c-2.9-3-5.7-6.1-8.6-9.1
		c-2.7-2.9-5.5-5.8-8.2-8.7c-3-3.1-5.9-6.2-8.9-9.4c-2.4-2.6-4.9-5-7.3-7.6C304.2,1.5,303.4,0.8,302.7-0.1z"/>
	<path clip-path="url(#SVGID_2_)" fill-rule="evenodd" clip-rule="evenodd" fill="#84843A" d="M499.8-0.1c0.9,0.5,2,0.3,3,0.4
		c4.7,0.5,9.1,1.7,13.5,3.3c5.1,1.8,9.8,4.4,14.3,7.6c3.8,2.7,7.2,5.9,10.3,9.4c2.2,2.5,4.2,5.2,6,8c3.3,5.4,5.7,11.1,7.2,17.2
		c0.8,3.1,1.2,6.2,1.5,9.4c0.3,3,0.1,6,0.2,9c0,1.6-0.1,1.6-1.7,1.6c-35.6,0-71.2,0-106.8,0c-1,0-1.5-0.1-1.2,1.3
		c1.1,8.1,4.1,15.4,8.8,22c4,5.7,9.1,10.2,15,13.8c5.4,3.3,11.2,5.3,17.4,6.4c4,0.7,8,0.8,12,0.5c6.8-0.6,13.3-2.4,19.3-5.7
		c3.4-1.8,6.5-4.1,9.4-6.6c5.2-4.5,9.2-10,12.2-16.2c0.7-1.5,1.3-3,1.9-4.5c0.2-0.4,0.3-0.5,0.7-0.5c3.4,0,6.8,0,10.2,0
		c0.6,0,0.7,0.2,0.5,0.8c-1.9,6.7-4.9,12.9-9,18.6c-2.3,3.2-4.9,6.2-7.8,8.9c-3.5,3.3-7.4,6.2-11.7,8.6c-5,2.8-10.2,4.9-15.8,6.2
		c-3,0.7-6,1.1-9.1,1.4c-2.4,0.2-4.9,0.2-7.3,0.2c-4.9-0.1-9.8-1-14.5-2.3c-3.5-1-7-2.3-10.3-4c-5-2.5-9.5-5.6-13.7-9.4
		c-4.4-3.9-8-8.4-11.1-13.3c-3.5-5.8-6.1-12-7.5-18.6c-0.6-3-1-5.9-1.2-9c-0.1-1.8,0-3.7-0.2-5.5c-0.1-1.2,0.3-2.3,0.3-3.4
		c0-0.4,0.2-0.5,0.6-0.5c0.3,0,0.6,0,1,0c35.5,0,71,0,106.4,0c1.7,0,1.7,0,1.5-1.8c-0.4-3.8-1.5-7.5-2.9-11.1
		c-1.8-4.6-4.3-8.8-7.3-12.7c-4-5-8.8-9.1-14.3-12.3c-4.5-2.6-9.3-4.4-14.4-5.5c-4.7-1-9.4-1.1-14.1-0.9c-3.2,0.1-6.4,0.8-9.6,1.7
		c-5.1,1.5-9.8,3.6-14.2,6.6c-2.8,1.9-5.5,4.1-7.9,6.6c-4.9,5.2-8.6,11.1-11.1,17.8c-0.2,0.6-0.4,0.9-1.1,0.9c-3.3,0-6.6,0-9.8,0
		c-0.7,0-0.8-0.1-0.6-0.8c1.3-4.6,3.2-9,5.5-13.2c1.8-3.3,4-6.4,6.4-9.3c2.2-2.7,4.7-5.1,7.5-7.3c2.6-2.1,5.2-4,8.1-5.7
		c4.4-2.7,9.1-4.6,14.1-6.1c3-0.9,6-1.4,9.1-1.9c1.1-0.2,2.2,0.1,3.2-0.4C493.7-0.1,496.7-0.1,499.8-0.1z"/>
	<path clip-path="url(#SVGID_2_)" fill-rule="evenodd" clip-rule="evenodd" fill="#84843A" d="M213-0.1c1,0.6,2.1,0.3,3.2,0.4
		c5.4,0.7,10.6,2.1,15.7,4.1c4.9,2,9.4,4.6,13.6,7.8c4,3.1,7.6,6.6,10.8,10.6c3,3.9,5.6,8,7.6,12.5c2.2,4.7,3.7,9.6,4.5,14.7
		c0.7,4.2,1,8.4,0.9,12.6c0,0.9-0.4,1.8-0.3,2.7c0.1,0.4-0.2,0.4-0.5,0.4c-0.3,0-0.6,0-1,0c-35.6,0-71.1,0-106.7,0
		c-1.6,0-1.5,0-1.3,1.6c0.5,4.3,1.7,8.4,3.4,12.4c1.7,4.1,4,7.9,6.8,11.4c1.5,1.8,3,3.6,4.7,5.2c4.3,4,9.2,7.2,14.6,9.6
		c4.2,1.9,8.6,3.1,13.2,3.7c3.8,0.5,7.7,0.4,11.5,0.1c3.5-0.3,6.8-1,10.1-2.1c3.7-1.2,7.3-2.8,10.6-4.9c3.4-2.1,6.5-4.5,9.3-7.3
		c5.2-5.3,9.1-11.4,11.6-18.4c0.2-0.5,0.3-0.8,0.9-0.8c3.6,0,7.1,0,10.8,0c-0.5,2.5-1.4,4.8-2.3,7c-1.8,4.4-4,8.5-6.8,12.3
		c-2.6,3.5-5.4,6.9-8.8,9.8c-3.1,2.7-6.4,5.2-10,7.3c-4.3,2.6-8.9,4.4-13.6,5.9c-2.7,0.8-5.5,1.4-8.2,1.8c-4.2,0.7-8.4,0.8-12.6,0.5
		c-5.8-0.4-11.4-1.5-16.8-3.5c-5.8-2.1-11.1-5.1-16-8.7c-3-2.2-5.7-4.8-8.2-7.6c-2.9-3.1-5.3-6.6-7.5-10.2
		c-3.3-5.5-5.5-11.4-6.9-17.6c-0.6-2.5-0.9-5-1.1-7.6c-0.3-3-0.1-5.9-0.2-8.8c0-0.2,0-0.3,0-0.5c0.1-0.9,0.4-1.4,1.6-1.4
		c35.6,0,71.2,0,106.8,0c1.5,0,1.5,0,1.3-1.4c-1.1-8.3-4.3-15.8-9.2-22.6c-1.6-2.1-3.2-4.2-5.1-6c-3.3-3.1-6.9-5.8-10.9-8
		c-5-2.8-10.3-4.5-15.8-5.6c-4-0.8-8.2-0.8-12.2-0.5c-6.7,0.6-13.1,2.4-19.1,5.7c-3.4,1.9-6.5,4.1-9.4,6.6
		c-5.3,4.6-9.3,10.1-12.3,16.4c-0.7,1.4-1.2,2.8-1.8,4.2c-0.2,0.5-0.3,0.7-0.9,0.7c-3.3,0-6.6,0-10,0c-0.7,0-0.8-0.1-0.6-0.9
		c1.7-6.3,4.5-12.1,8.2-17.4c2.6-3.9,5.7-7.4,9.2-10.6c4.6-4.2,9.7-7.6,15.4-10.3c4.9-2.3,10.1-3.8,15.4-4.7
		c1.7-0.3,3.5-0.6,5.3-0.5c0.2,0,0.5,0.1,0.6-0.2C207.4-0.1,210.2-0.1,213-0.1z"/>
	<path clip-path="url(#SVGID_2_)" fill-rule="evenodd" clip-rule="evenodd" fill="#84843A" d="M302.7-0.1c0.6,0.9,1.4,1.7,2.2,2.5
		c2.4,2.6,4.9,5,7.3,7.6c2.9,3.1,5.9,6.2,8.9,9.4c2.7,2.9,5.5,5.8,8.2,8.7c2.9,3,5.7,6.1,8.6,9.1c2.8,2.9,5.6,5.9,8.4,8.8
		c2.9,3.1,5.8,6.1,8.7,9.2c2.7,2.8,5.3,5.7,8,8.5c3,3.2,6,6.4,9,9.5c2.5,2.6,4.9,5.3,7.4,7.9c3.2,3.3,6.4,6.6,9.5,10
		c2.7,3,5.5,5.8,8.3,8.8c1.3,1.4,2.6,2.8,4.1,4.3c0-34.9,0-69.6,0-104.3c3.8,0,7.5,0,11.3,0c0,39.9,0,79.8,0,119.8
		c0,1.2-0.3,1.5-1.5,1.5c-2.7-0.1-5.4-0.2-8.2,0c-1.7,0.1-2.6-0.7-3.5-1.8c-0.3-0.4-0.6-0.8-1-1.2c-2.4-2.5-4.9-5-7.3-7.6
		c-2.8-3-5.6-5.9-8.4-8.8c-2.9-3-5.8-6.1-8.6-9.1c-2.8-3-5.6-6-8.4-8.9c-2.9-3-5.7-6.1-8.6-9.1c-2.8-3-5.6-6-8.4-8.9
		c-2.8-3-5.7-6-8.5-9c-2.8-3-5.7-6-8.5-9c-2.8-3-5.6-6-8.4-8.9c-3-3.1-5.9-6.2-8.9-9.4c-2.7-2.8-5.3-5.7-8-8.5
		c-1.2-1.3-2.4-2.6-3.9-4c0,0.7,0,1.1,0,1.6c0,33.8,0,67.5,0,101.3c0,1.2-0.3,1.5-1.4,1.4c-2.9-0.1-5.8-0.1-8.6,0
		c-1,0-1.3-0.2-1.3-1.2c0-12.4,0-24.9,0-37.3c0-27.6,0-55.1,0-82.7C295.1-0.1,298.9-0.1,302.7-0.1z"/>
	<path clip-path="url(#SVGID_2_)" fill-rule="evenodd" clip-rule="evenodd" fill="#ED881D" d="M643.8,0.1c0,0.5,0,1,0,1.6
		c0,39.3,0,78.6,0,117.9c0,1.2-0.3,1.5-1.5,1.5c-2.8-0.1-5.6-0.1-8.4,0c-0.9,0-1.2-0.3-1-1.1c0-0.3,0-0.6,0-0.8
		c0-35.3,0-70.6,0-105.9c0-2.3,0-2.3-2.3-2.3c-24.5,0-49,0-73.6,0c-1.1,0-1.4-0.2-1.4-1.3c0.1-3.2,0-6.5,0-9.7c29.4,0,58.7,0,88.1,0
		C643.8-0.1,643.8,0,643.8,0.1z"/>
	<path clip-path="url(#SVGID_2_)" fill-rule="evenodd" clip-rule="evenodd" fill="#36929A" d="M70.9-0.1c0,0.5,0.1,1,0.1,1.4
		c0,35.4,0,70.8,0,106.2c0,0.8-0.5,1.9,0.1,2.4c0.5,0.4,1.6,0.2,2.4,0.2c24.4,0,48.9,0,73.3,0c1.1,0,1.4,0.3,1.4,1.4
		c-0.1,2.8-0.1,5.6,0,8.4c0,1-0.2,1.3-1.3,1.3c-5.6-0.1-11.3,0-16.9,0c-22.7,0-45.3,0-68,0c-1.9,0-1.9,0-1.9-1.9
		c0-39.2,0-78.4,0-117.6c0-0.5,0-1,0-1.6c0-0.1,0.1-0.1,0.1-0.2C63.7-0.1,67.3-0.1,70.9-0.1z"/>
	<path clip-path="url(#SVGID_2_)" fill-rule="evenodd" clip-rule="evenodd" fill="#ED881D" d="M676.9,10.9c-7,0-14,0-21,0
		c-0.9,0-1.1-0.2-1.1-1.1c0.1-3.3,0-6.6,0-9.9c7.1,0,14.2,0,21.2,0c0.7,0,0.9,0.1,0.9,0.9C676.9,4.1,676.9,7.5,676.9,10.9z"/>
	<path clip-path="url(#SVGID_2_)" fill-rule="evenodd" clip-rule="evenodd" fill="#36929A" d="M27,110c7,0,14,0,21,0
		c0.9,0,1.2,0.2,1.1,1.1c-0.1,3-0.1,5.9,0,8.9c0,0.9-0.3,1.1-1.1,1.1c-7,0-14,0-21,0C27,117.4,27,113.7,27,110z"/>
	<path clip-path="url(#SVGID_2_)" fill-rule="evenodd" clip-rule="evenodd" fill="#FBE8D3" d="M60.1-0.1c0,0.1,0,0.2-0.1,0.2
		C60,0,59.9-0.1,59.9-0.1C59.9-0.1,60-0.1,60.1-0.1z"/>
	<path clip-path="url(#SVGID_2_)" fill-rule="evenodd" clip-rule="evenodd" fill="#FBE8D3" d="M643.8,0.1c0-0.1,0-0.2-0.1-0.2
		c0.1,0,0.2,0,0.2,0C644-0.1,643.9,0,643.8,0.1z"/>
</g>
<g>
	<path fill="#84843A" d="M25.3,164.5l-2,1.6c-1.1-1.5-2.5-2.6-4.1-3.3s-3.3-1.1-5.2-1.1c-2.1,0-4,0.5-5.7,1.5s-3.1,2.3-4.1,4
		s-1.5,3.5-1.5,5.6c0,3.2,1.1,5.8,3.2,7.9s4.9,3.2,8.2,3.2c3.6,0,6.7-1.4,9.1-4.3l2,1.5c-1.3,1.6-2.9,2.9-4.8,3.8s-4.1,1.3-6.5,1.3
		c-4.5,0-8.1-1.5-10.7-4.5c-2.2-2.5-3.3-5.6-3.3-9.2c0-3.8,1.3-7,4-9.6s6-3.9,10-3.9c2.4,0,4.6,0.5,6.5,1.4S24,162.8,25.3,164.5z"/>
	<path fill="#84843A" d="M46.2,179.2l2.1,1.1c-0.7,1.3-1.5,2.4-2.4,3.2c-0.9,0.8-1.9,1.4-3,1.9c-1.1,0.4-2.4,0.6-3.8,0.6
		c-3.1,0-5.6-1-7.3-3.1s-2.6-4.4-2.6-6.9c0-2.4,0.7-4.6,2.2-6.5c1.9-2.4,4.4-3.6,7.6-3.6c3.3,0,5.9,1.2,7.8,3.7
		c1.4,1.7,2.1,3.9,2.1,6.5H31.7c0,2.2,0.8,4,2.1,5.5s3.1,2.1,5.1,2.1c1,0,1.9-0.2,2.8-0.5c0.9-0.3,1.7-0.8,2.3-1.3
		C44.7,181.3,45.4,180.4,46.2,179.2z M46.2,174c-0.3-1.3-0.8-2.4-1.4-3.1s-1.5-1.4-2.5-1.9c-1-0.5-2.1-0.7-3.3-0.7
		c-1.9,0-3.5,0.6-4.8,1.8c-1,0.9-1.7,2.2-2.2,4H46.2z"/>
	<path fill="#84843A" d="M53.5,166.4h2.5v3.4c1-1.3,2.1-2.3,3.3-2.9s2.5-1,3.9-1c1.4,0,2.7,0.4,3.8,1.1s1.9,1.7,2.5,2.9
		s0.8,3.1,0.8,5.7v9.8h-2.5v-9.1c0-2.2-0.1-3.7-0.3-4.4c-0.3-1.3-0.8-2.2-1.6-2.9s-1.9-1-3.2-1c-1.5,0-2.8,0.5-4,1.5
		c-1.2,1-2,2.2-2.3,3.7c-0.2,0.9-0.4,2.7-0.4,5.2v7h-2.5V166.4z"/>
	<path fill="#84843A" d="M77.6,159.3H80v7.1h3.9v2.1H80v17h-2.5v-17h-3.4v-2.1h3.4V159.3z"/>
	<path fill="#84843A" d="M86.7,166.4h2.5v2.8c0.8-1.1,1.5-1.9,2.4-2.5s1.7-0.8,2.6-0.8c0.7,0,1.4,0.2,2.2,0.7l-1.3,2.1
		c-0.5-0.2-0.9-0.3-1.3-0.3c-0.8,0-1.6,0.3-2.4,1s-1.3,1.7-1.7,3.1c-0.3,1.1-0.5,3.3-0.5,6.6v6.5h-2.5V166.4z"/>
	<path fill="#84843A" d="M98.1,166.4h2.5v8.9c0,2.2,0.1,3.7,0.4,4.5c0.4,1.2,1,2.1,2,2.8s2.2,1,3.5,1s2.5-0.3,3.5-1
		c1-0.7,1.6-1.5,2-2.6c0.2-0.7,0.4-2.3,0.4-4.7v-8.9h2.5v9.4c0,2.6-0.3,4.6-0.9,6s-1.5,2.4-2.8,3.1s-2.8,1.1-4.6,1.1
		s-3.4-0.4-4.7-1.1s-2.2-1.8-2.8-3.2s-0.9-3.4-0.9-6.1V166.4z"/>
	<path fill="#84843A" d="M120.3,166.4h2.5v3.3c0.9-1.2,1.7-2.1,2.6-2.7c1.2-0.8,2.6-1.1,3.9-1.1c0.9,0,1.8,0.2,2.6,0.5
		s1.5,0.8,2,1.5c0.5,0.6,1,1.5,1.4,2.6c0.8-1.5,1.8-2.6,3.1-3.4c1.2-0.8,2.5-1.2,4-1.2c1.3,0,2.5,0.3,3.5,1s1.8,1.6,2.3,2.8
		c0.5,1.2,0.7,3,0.7,5.4v10.4h-2.5v-10.4c0-2.1-0.1-3.5-0.4-4.2s-0.8-1.4-1.5-1.9s-1.6-0.7-2.5-0.7c-1.2,0-2.3,0.4-3.3,1.1
		c-1,0.7-1.7,1.6-2.2,2.8s-0.7,3.1-0.7,5.9v7.5h-2.5v-9.8c0-2.3-0.1-3.9-0.4-4.7s-0.8-1.5-1.5-2s-1.6-0.7-2.5-0.7
		c-1.1,0-2.2,0.3-3.2,1s-1.7,1.6-2.2,2.8s-0.7,2.9-0.7,5.3v8.1h-2.5V166.4z"/>
	<path fill="#84843A" d="M162.2,166.4h2.6l6.4,13.9l6.3-13.9h2.6l-8.8,19.1h-0.5L162.2,166.4z"/>
	<path fill="#84843A" d="M193.1,165.9c2.9,0,5.4,1.1,7.3,3.2c1.8,1.9,2.6,4.2,2.6,6.9c0,2.7-0.9,5-2.8,7c-1.9,2-4.3,3-7.2,3
		c-2.9,0-5.3-1-7.2-3c-1.9-2-2.8-4.3-2.8-7c0-2.6,0.9-4.9,2.6-6.9C187.7,167,190.1,165.9,193.1,165.9z M193.1,168.3
		c-2,0-3.8,0.8-5.3,2.3c-1.5,1.5-2.2,3.3-2.2,5.5c0,1.4,0.3,2.7,1,3.9s1.6,2.1,2.7,2.8c1.1,0.7,2.4,1,3.8,1c1.4,0,2.6-0.3,3.8-1
		c1.1-0.7,2-1.6,2.7-2.8c0.7-1.2,1-2.5,1-3.9c0-2.1-0.7-4-2.2-5.5S195.1,168.3,193.1,168.3z"/>
	<path fill="#84843A" d="M216.6,165.9c2.9,0,5.4,1.1,7.3,3.2c1.8,1.9,2.6,4.2,2.6,6.9c0,2.7-0.9,5-2.8,7c-1.9,2-4.3,3-7.2,3
		c-2.9,0-5.3-1-7.2-3c-1.9-2-2.8-4.3-2.8-7c0-2.6,0.9-4.9,2.6-6.9C211.2,167,213.7,165.9,216.6,165.9z M216.6,168.3
		c-2,0-3.8,0.8-5.3,2.3c-1.5,1.5-2.2,3.3-2.2,5.5c0,1.4,0.3,2.7,1,3.9s1.6,2.1,2.7,2.8c1.1,0.7,2.4,1,3.8,1c1.4,0,2.6-0.3,3.8-1
		c1.1-0.7,2-1.6,2.7-2.8c0.7-1.2,1-2.5,1-3.9c0-2.1-0.7-4-2.2-5.5S218.7,168.3,216.6,168.3z"/>
	<path fill="#84843A" d="M230.2,166.4h2.5v2.8c0.8-1.1,1.5-1.9,2.4-2.5s1.7-0.8,2.6-0.8c0.7,0,1.4,0.2,2.2,0.7l-1.3,2.1
		c-0.5-0.2-0.9-0.3-1.3-0.3c-0.8,0-1.6,0.3-2.4,1s-1.3,1.7-1.7,3.1c-0.3,1.1-0.5,3.3-0.5,6.6v6.5h-2.5V166.4z"/>
	<path fill="#84843A" d="M252.4,159.7h5.1c2.1,0,3.6,0.2,4.7,0.7s2,1.2,2.6,2.2s1,2.1,1,3.4c0,1.1-0.3,2.2-0.8,3.1
		c-0.6,0.9-1.4,1.7-2.5,2.3c1.3,0.5,2.4,1,3.1,1.6c0.7,0.6,1.3,1.4,1.7,2.2c0.4,0.9,0.6,1.8,0.6,2.8c0,2.1-0.8,3.8-2.3,5.3
		s-3.6,2.2-6.1,2.2h-7.1V159.7z M255,162.2v8.3h1.5c1.8,0,3.1-0.2,4-0.5c0.8-0.3,1.5-0.9,2-1.6c0.5-0.7,0.7-1.5,0.7-2.4
		c0-1.2-0.4-2.1-1.2-2.8c-0.8-0.7-2.1-1-4-1H255z M255,173.1v9.9h3.2c1.9,0,3.3-0.2,4.2-0.6c0.9-0.4,1.6-0.9,2.1-1.7
		s0.8-1.6,0.8-2.5c0-1.1-0.4-2.2-1.1-3s-1.8-1.4-3.1-1.8c-0.9-0.2-2.4-0.3-4.6-0.3H255z"/>
	<path fill="#84843A" d="M288.7,179.2l2.1,1.1c-0.7,1.3-1.5,2.4-2.4,3.2c-0.9,0.8-1.9,1.4-3,1.9c-1.1,0.4-2.4,0.6-3.8,0.6
		c-3.1,0-5.6-1-7.3-3.1s-2.6-4.4-2.6-6.9c0-2.4,0.7-4.6,2.2-6.5c1.9-2.4,4.4-3.6,7.6-3.6c3.3,0,5.9,1.2,7.8,3.7
		c1.4,1.7,2.1,3.9,2.1,6.5h-17.2c0,2.2,0.8,4,2.1,5.5s3.1,2.1,5.1,2.1c1,0,1.9-0.2,2.8-0.5c0.9-0.3,1.7-0.8,2.3-1.3
		C287.3,181.3,288,180.4,288.7,179.2z M288.7,174c-0.3-1.3-0.8-2.4-1.4-3.1s-1.5-1.4-2.5-1.9c-1-0.5-2.1-0.7-3.3-0.7
		c-1.9,0-3.5,0.6-4.8,1.8c-1,0.9-1.7,2.2-2.2,4H288.7z"/>
	<path fill="#84843A" d="M293.4,166.4h2.5l5.9,13.9l6.1-13.9h0.4l6.1,13.9l6-13.9h2.6l-8.3,19.1h-0.5l-6.1-13.7l-6.1,13.7h-0.5
		L293.4,166.4z"/>
	<path fill="#84843A" d="M325.6,166.4h2.5v8.9c0,2.2,0.1,3.7,0.4,4.5c0.4,1.2,1,2.1,2,2.8s2.2,1,3.5,1s2.5-0.3,3.5-1
		c1-0.7,1.6-1.5,2-2.6c0.2-0.7,0.4-2.3,0.4-4.7v-8.9h2.5v9.4c0,2.6-0.3,4.6-0.9,6s-1.5,2.4-2.8,3.1s-2.8,1.1-4.6,1.1
		s-3.4-0.4-4.7-1.1s-2.2-1.8-2.8-3.2s-0.9-3.4-0.9-6.1V166.4z"/>
	<path fill="#84843A" d="M357.4,168.5l-1.6,1.6c-1.3-1.3-2.6-1.9-3.9-1.9c-0.8,0-1.5,0.3-2.1,0.8s-0.9,1.1-0.9,1.8
		c0,0.6,0.2,1.2,0.7,1.8c0.5,0.6,1.5,1.2,3,2c1.8,0.9,3.1,1.9,3.7,2.7c0.6,0.9,1,1.9,1,3c0,1.6-0.6,2.9-1.7,4
		c-1.1,1.1-2.5,1.6-4.1,1.6c-1.1,0-2.2-0.2-3.2-0.7c-1-0.5-1.8-1.1-2.5-2l1.5-1.8c1.3,1.4,2.6,2.1,4,2.1c1,0,1.8-0.3,2.5-0.9
		c0.7-0.6,1-1.4,1-2.2c0-0.7-0.2-1.3-0.7-1.9c-0.5-0.5-1.5-1.2-3.1-2c-1.7-0.9-2.9-1.8-3.5-2.6s-0.9-1.9-0.9-3
		c0-1.5,0.5-2.7,1.5-3.6c1-1,2.2-1.4,3.8-1.4C353.9,165.9,355.6,166.8,357.4,168.5z"/>
	<path fill="#84843A" d="M363.9,159.3h2.5v7.1h3.9v2.1h-3.9v17h-2.5v-17h-3.4v-2.1h3.4V159.3z"/>
	<path fill="#84843A" d="M383.4,162.2v-2.5H397L386.2,183h10.3v2.5h-14.3l10.9-23.4H383.4z"/>
	<path fill="#84843A" d="M402.1,158.5c0.6,0,1,0.2,1.4,0.6c0.4,0.4,0.6,0.9,0.6,1.4c0,0.6-0.2,1-0.6,1.4c-0.4,0.4-0.9,0.6-1.4,0.6
		c-0.5,0-1-0.2-1.4-0.6s-0.6-0.9-0.6-1.4c0-0.6,0.2-1,0.6-1.4S401.5,158.5,402.1,158.5z M400.9,166.4h2.5v19.1h-2.5V166.4z"/>
	<path fill="#84843A" d="M408.1,166.4h2.5v22c0,1.6-0.3,2.8-0.9,3.5s-1.4,1.1-2.4,1.1c-0.8,0-1.8-0.2-2.8-0.6v-2.2
		c0.7,0.3,1.2,0.5,1.8,0.5c0.7,0,1.2-0.3,1.5-0.8c0.2-0.4,0.3-1.1,0.3-2.2V166.4z M409.4,158.5c0.6,0,1,0.2,1.4,0.6s0.6,0.9,0.6,1.4
		c0,0.6-0.2,1-0.6,1.4s-0.9,0.6-1.4,0.6s-1-0.2-1.4-0.6s-0.6-0.9-0.6-1.4c0-0.6,0.2-1,0.6-1.4S408.8,158.5,409.4,158.5z"/>
	<path fill="#84843A" d="M415.8,166.4h2.5v3.4c1-1.3,2.1-2.3,3.3-2.9s2.5-1,3.9-1c1.4,0,2.7,0.4,3.8,1.1s1.9,1.7,2.5,2.9
		s0.8,3.1,0.8,5.7v9.8H430v-9.1c0-2.2-0.1-3.7-0.3-4.4c-0.3-1.3-0.8-2.2-1.6-2.9s-1.9-1-3.2-1c-1.5,0-2.8,0.5-4,1.5s-2,2.2-2.3,3.7
		c-0.2,0.9-0.4,2.7-0.4,5.2v7h-2.5V166.4z"/>
	<path fill="#84843A" d="M467.6,176l1.8,1.9c-1.1,1-2.2,1.9-3.2,2.6c0.7,0.6,1.6,1.5,2.8,2.7c0.9,0.9,1.7,1.7,2.3,2.5h-3.6l-3.4-3.5
		c-2.2,1.7-3.9,2.9-5.3,3.4s-2.8,0.8-4.3,0.8c-2,0-3.6-0.6-4.8-1.7c-1.2-1.1-1.8-2.6-1.8-4.3c0-1.3,0.4-2.6,1.2-3.9
		c0.8-1.3,2.5-2.9,5-4.9c-1.4-1.7-2.3-3-2.7-3.8c-0.4-0.8-0.6-1.6-0.6-2.3c0-1.3,0.5-2.4,1.5-3.2c1.1-1,2.6-1.5,4.3-1.5
		c1.1,0,2.1,0.2,3,0.7s1.6,1,2,1.7s0.7,1.5,0.7,2.3c0,0.9-0.3,1.8-0.9,2.8s-1.8,2.2-3.6,3.8l3.9,4.1l2.6,2.6
		C465.8,177.6,466.9,176.7,467.6,176z M456,173.4c-2.2,1.7-3.6,3-4.3,3.9c-0.7,1-1,1.9-1,2.7c0,1,0.4,1.9,1.3,2.6
		c0.8,0.8,1.9,1.1,3.1,1.1c0.9,0,1.8-0.2,2.7-0.6c1.4-0.6,3-1.6,4.8-3l-4.1-4.2C457.6,175.2,456.9,174.3,456,173.4z M456.3,169.9
		c1.3-1,2.2-1.9,2.8-2.9c0.4-0.7,0.7-1.3,0.7-1.8c0-0.6-0.3-1.1-0.9-1.5c-0.6-0.4-1.4-0.7-2.3-0.7c-0.9,0-1.7,0.2-2.2,0.7
		c-0.6,0.4-0.9,1-0.9,1.6c0,0.5,0.1,0.9,0.4,1.3C454.4,167.7,455.3,168.7,456.3,169.9z"/>
	<path fill="#84843A" d="M485.4,159.7h5.2c2.9,0,4.8,0.1,5.8,0.4c1.5,0.4,2.8,1.1,3.7,2.3c1,1.2,1.4,2.6,1.4,4.3
		c0,1.4-0.3,2.6-1,3.7s-1.6,1.9-2.8,2.4s-2.9,0.8-5.1,0.8l9.3,12h-3.2l-9.3-12H488v12h-2.6V159.7z M488,162.2v8.8l4.5,0
		c1.7,0,3-0.2,3.8-0.5c0.8-0.3,1.5-0.9,1.9-1.6s0.7-1.5,0.7-2.4c0-0.9-0.2-1.7-0.7-2.4s-1.1-1.2-1.8-1.5c-0.8-0.3-2-0.5-3.8-0.5H488
		z"/>
	<path fill="#84843A" d="M522.8,179.2l2.1,1.1c-0.7,1.3-1.5,2.4-2.4,3.2s-1.9,1.4-3,1.9s-2.4,0.6-3.8,0.6c-3.1,0-5.6-1-7.3-3.1
		c-1.8-2-2.6-4.4-2.6-6.9c0-2.4,0.7-4.6,2.2-6.5c1.9-2.4,4.4-3.6,7.6-3.6c3.3,0,5.9,1.2,7.8,3.7c1.4,1.7,2.1,3.9,2.1,6.5h-17.2
		c0,2.2,0.8,4,2.1,5.5c1.4,1.4,3.1,2.1,5.1,2.1c1,0,1.9-0.2,2.8-0.5s1.7-0.8,2.3-1.3C521.4,181.3,522.1,180.4,522.8,179.2z
		 M522.8,174c-0.3-1.3-0.8-2.4-1.4-3.1s-1.5-1.4-2.5-1.9c-1-0.5-2.1-0.7-3.3-0.7c-1.9,0-3.5,0.6-4.8,1.8c-1,0.9-1.7,2.2-2.2,4H522.8
		z"/>
	<path fill="#84843A" d="M528.5,174.7h9.7v2.1h-9.7V174.7z"/>
	<path fill="#84843A" d="M542.9,158.5c0.6,0,1,0.2,1.4,0.6c0.4,0.4,0.6,0.9,0.6,1.4c0,0.6-0.2,1-0.6,1.4c-0.4,0.4-0.9,0.6-1.4,0.6
		c-0.5,0-1-0.2-1.4-0.6s-0.6-0.9-0.6-1.4c0-0.6,0.2-1,0.6-1.4S542.4,158.5,542.9,158.5z M541.7,166.4h2.5v19.1h-2.5V166.4z"/>
	<path fill="#84843A" d="M549.3,166.4h2.5v3.4c1-1.3,2.1-2.3,3.3-2.9s2.5-1,3.9-1c1.4,0,2.7,0.4,3.8,1.1s1.9,1.7,2.5,2.9
		s0.8,3.1,0.8,5.7v9.8h-2.5v-9.1c0-2.2-0.1-3.7-0.3-4.4c-0.3-1.3-0.8-2.2-1.6-2.9s-1.9-1-3.2-1c-1.5,0-2.8,0.5-4,1.5s-2,2.2-2.3,3.7
		c-0.2,0.9-0.4,2.7-0.4,5.2v7h-2.5V166.4z"/>
	<path fill="#84843A" d="M573.4,159.3h2.5v7.1h3.9v2.1h-3.9v17h-2.5v-17H570v-2.1h3.4V159.3z"/>
	<path fill="#84843A" d="M599.6,179.2l2.1,1.1c-0.7,1.3-1.5,2.4-2.4,3.2s-1.9,1.4-3,1.9s-2.4,0.6-3.8,0.6c-3.1,0-5.6-1-7.3-3.1
		c-1.8-2-2.6-4.4-2.6-6.9c0-2.4,0.7-4.6,2.2-6.5c1.9-2.4,4.4-3.6,7.6-3.6c3.3,0,5.9,1.2,7.8,3.7c1.4,1.7,2.1,3.9,2.1,6.5h-17.2
		c0,2.2,0.8,4,2.1,5.5c1.4,1.4,3.1,2.1,5.1,2.1c1,0,1.9-0.2,2.8-0.5s1.7-0.8,2.3-1.3C598.1,181.3,598.8,180.4,599.6,179.2z
		 M599.6,174c-0.3-1.3-0.8-2.4-1.4-3.1s-1.5-1.4-2.5-1.9c-1-0.5-2.1-0.7-3.3-0.7c-1.9,0-3.5,0.6-4.8,1.8c-1,0.9-1.7,2.2-2.2,4H599.6
		z"/>
	<path fill="#84843A" d="M623.3,166.4h2.5v15.2c0,2.7-0.2,4.6-0.7,5.9c-0.6,1.8-1.8,3.1-3.4,4.1s-3.5,1.4-5.7,1.4
		c-1.6,0-3.1-0.2-4.4-0.7c-1.3-0.5-2.4-1.1-3.2-1.9c-0.8-0.8-1.6-1.9-2.3-3.4h2.7c0.7,1.3,1.7,2.2,2.8,2.8c1.2,0.6,2.6,0.9,4.3,0.9
		c1.7,0,3.1-0.3,4.2-0.9c1.2-0.6,2-1.4,2.5-2.4c0.5-0.9,0.7-2.5,0.7-4.6v-1c-0.9,1.2-2.1,2.1-3.4,2.7c-1.3,0.6-2.8,0.9-4.3,0.9
		c-1.8,0-3.4-0.4-5-1.3c-1.5-0.9-2.7-2-3.6-3.5s-1.3-3.1-1.3-4.9s0.4-3.4,1.3-4.9s2.1-2.7,3.7-3.6s3.2-1.3,4.9-1.3
		c1.4,0,2.8,0.3,4,0.9c1.2,0.6,2.4,1.6,3.6,2.9V166.4z M616.1,168.3c-1.4,0-2.7,0.3-3.9,1s-2.1,1.6-2.8,2.8s-1,2.5-1,3.9
		c0,2.1,0.7,3.8,2.1,5.2s3.2,2.1,5.5,2.1c2.3,0,4.1-0.7,5.5-2s2.1-3.1,2.1-5.4c0-1.4-0.3-2.7-0.9-3.9s-1.5-2-2.7-2.7
		S617.4,168.3,616.1,168.3z"/>
	<path fill="#84843A" d="M630.1,166.4h2.5v2.8c0.8-1.1,1.5-1.9,2.4-2.5s1.7-0.8,2.6-0.8c0.7,0,1.4,0.2,2.2,0.7l-1.3,2.1
		c-0.5-0.2-0.9-0.3-1.3-0.3c-0.8,0-1.6,0.3-2.4,1s-1.3,1.7-1.7,3.1c-0.3,1.1-0.5,3.3-0.5,6.6v6.5h-2.5V166.4z"/>
	<path fill="#84843A" d="M661,166.4v19.1h-2.4v-3.3c-1,1.3-2.2,2.2-3.5,2.8s-2.7,0.9-4.2,0.9c-2.7,0-5-1-6.9-2.9s-2.9-4.4-2.9-7.2
		c0-2.8,1-5.1,2.9-7.1s4.3-2.9,7-2.9c1.6,0,3,0.3,4.3,1s2.4,1.7,3.3,3v-3.5H661z M651.1,168.3c-1.4,0-2.6,0.3-3.8,1
		c-1.2,0.7-2.1,1.6-2.8,2.8c-0.7,1.2-1,2.5-1,3.9c0,1.3,0.3,2.6,1,3.9c0.7,1.2,1.6,2.2,2.8,2.9c1.2,0.7,2.4,1,3.7,1
		c1.3,0,2.6-0.3,3.8-1c1.2-0.7,2.1-1.6,2.8-2.8c0.6-1.2,1-2.5,1-3.9c0-2.2-0.7-4.1-2.2-5.5C655,169,653.2,168.3,651.1,168.3z"/>
	<path fill="#84843A" d="M668.6,159.3h2.5v7.1h3.9v2.1h-3.9v17h-2.5v-17h-3.4v-2.1h3.4V159.3z"/>
	<path fill="#84843A" d="M679.5,158.5c0.6,0,1,0.2,1.4,0.6c0.4,0.4,0.6,0.9,0.6,1.4c0,0.6-0.2,1-0.6,1.4c-0.4,0.4-0.9,0.6-1.4,0.6
		c-0.5,0-1-0.2-1.4-0.6s-0.6-0.9-0.6-1.4c0-0.6,0.2-1,0.6-1.4S679,158.5,679.5,158.5z M678.3,166.4h2.5v19.1h-2.5V166.4z"/>
	<path fill="#84843A" d="M702,179.2l2.1,1.1c-0.7,1.3-1.5,2.4-2.4,3.2s-1.9,1.4-3,1.9s-2.4,0.6-3.8,0.6c-3.1,0-5.6-1-7.3-3.1
		c-1.8-2-2.6-4.4-2.6-6.9c0-2.4,0.7-4.6,2.2-6.5c1.9-2.4,4.4-3.6,7.6-3.6c3.3,0,5.9,1.2,7.8,3.7c1.4,1.7,2.1,3.9,2.1,6.5h-17.2
		c0,2.2,0.8,4,2.1,5.5c1.4,1.4,3.1,2.1,5.1,2.1c1,0,1.9-0.2,2.8-0.5s1.7-0.8,2.3-1.3C700.6,181.3,701.2,180.4,702,179.2z M702,174
		c-0.3-1.3-0.8-2.4-1.4-3.1s-1.5-1.4-2.5-1.9c-1-0.5-2.1-0.7-3.3-0.7c-1.9,0-3.5,0.6-4.8,1.8c-1,0.9-1.7,2.2-2.2,4H702z"/>
</g>
</svg>
