<?xml version="1.0" encoding="utf-8"?>
<!-- Generator: Adobe Illustrator 18.0.0, SVG Export Plug-In . SVG Version: 6.00 Build 0)  -->
<!DOCTYPE svg PUBLIC "-//W3C//DTD SVG 1.1//EN" "http://www.w3.org/Graphics/SVG/1.1/DTD/svg11.dtd">
<svg version="1.1" id="Layer_1" xmlns="http://www.w3.org/2000/svg" xmlns:xlink="http://www.w3.org/1999/xlink" x="0px" y="0px"
	 viewBox="6.3 228.1 497.8 93.2" enable-background="new 6.3 228.1 497.8 93.2" xml:space="preserve">
<path fill="#84843A" d="M368.4,228.3c0.6,0.4,1.5,0.2,2.3,0.3c3.6,0.4,7,1.3,10.4,2.5c3.9,1.4,7.6,3.3,10.9,5.8
	c2.9,2.1,5.5,4.5,7.9,7.2c1.7,1.9,3.2,4,4.6,6.2c2.5,4.1,4.3,8.5,5.5,13.2c0.6,2.4,1,4.8,1.2,7.2c0.2,2.3,0.1,4.6,0.1,6.9
	c0,1.2-0.1,1.2-1.3,1.2c-27.3,0-54.5,0-81.8,0c-0.8,0-1.2-0.1-1,1c0.9,6.2,3.1,11.8,6.7,16.8c3,4.3,7,7.8,11.4,10.6
	c4.1,2.5,8.5,4.1,13.3,4.9c3,0.5,6.2,0.6,9.2,0.4c5.2-0.4,10.1-1.8,14.8-4.3c2.6-1.4,5-3.1,7.2-5.1c4-3.5,7-7.7,9.4-12.4
	c0.5-1.2,1-2.3,1.4-3.5c0.1-0.3,0.2-0.4,0.5-0.4c2.6,0,5.2,0,7.8,0c0.4,0,0.5,0.1,0.4,0.6c-1.4,5.2-3.8,9.9-6.9,14.3
	c-1.7,2.5-3.8,4.8-5.9,6.8c-2.7,2.5-5.7,4.8-9,6.6c-3.8,2.2-7.8,3.8-12.1,4.8c-2.3,0.5-4.6,0.9-7,1.1c-1.8,0.1-3.8,0.1-5.6,0.1
	c-3.8-0.1-7.6-0.8-11.1-1.7c-2.7-0.8-5.4-1.7-7.9-3c-3.8-1.9-7.2-4.3-10.5-7.2c-3.3-3-6.2-6.5-8.5-10.1c-2.7-4.4-4.6-9.2-5.7-14.3
	c-0.4-2.3-0.8-4.5-1-6.9c-0.1-1.4,0-2.8-0.1-4.2c-0.1-1,0.2-1.7,0.2-2.6c0-0.3,0.1-0.4,0.4-0.4c0.2,0,0.4,0,0.8,0
	c27.2,0,54.4,0,81.5,0c1.3,0,1.3,0,1.2-1.4c-0.3-2.9-1.2-5.7-2.3-8.5c-1.4-3.6-3.3-6.7-5.6-9.7c-3-3.8-6.7-7-10.9-9.4
	c-3.5-1.9-7.1-3.3-11-4.2c-3.6-0.8-7.2-0.9-10.8-0.6c-2.5,0.1-4.9,0.6-7.3,1.3c-3.9,1.2-7.6,2.8-10.9,5.1c-2.2,1.4-4.2,3.1-6,5.1
	c-3.8,4-6.6,8.5-8.5,13.6c-0.1,0.4-0.3,0.6-0.9,0.6c-2.5,0-5.1,0-7.6,0c-0.5,0-0.6-0.1-0.4-0.6c1-3.6,2.5-6.9,4.2-10.1
	c1.4-2.5,3-4.9,4.9-7.1c1.7-2.1,3.6-3.9,5.7-5.6c1.9-1.6,4-3,6.2-4.3c3.3-2.1,7-3.6,10.8-4.6c2.3-0.6,4.6-1.1,7-1.4
	c0.9-0.1,1.7,0.1,2.5-0.3C363.8,228.3,366,228.3,368.4,228.3z"/>
<path fill="#84843A" d="M148.7,228.3c0.8,0.4,1.6,0.2,2.5,0.3c4.1,0.5,8.1,1.6,12,3.1c3.8,1.5,7.2,3.6,10.4,5.9
	c3,2.4,5.8,5.1,8.3,8.1c2.3,3,4.3,6.2,5.8,9.6c1.7,3.6,2.8,7.3,3.5,11.2c0.5,3.2,0.8,6.5,0.6,9.6c0,0.6-0.3,1.4-0.2,2.1
	c0.1,0.3-0.1,0.3-0.4,0.3c-0.3,0-0.4,0-0.8,0c-27.3,0-54.4,0-81.7,0c-1.2,0-1.2,0-1,1.2c0.4,3.3,1.3,6.5,2.6,9.5
	c1.3,3.1,3,6,5.2,8.7c1.2,1.4,2.3,2.8,3.6,4c3.3,3,7,5.5,11.2,7.3c3.2,1.4,6.6,2.4,10.1,2.8c2.9,0.4,5.9,0.3,8.9,0.1
	c2.7-0.2,5.2-0.8,7.8-1.6c2.8-1,5.6-2.2,8.1-3.8c2.6-1.6,5-3.5,7.1-5.6c4-4.1,7-8.7,8.9-14.1c0.1-0.4,0.2-0.6,0.6-0.6
	c2.8,0,5.4,0,8.3,0c-0.4,1.9-1.1,3.7-1.7,5.4c-1.4,3.3-3,6.5-5.2,9.4c-1.9,2.7-4.1,5.3-6.7,7.6c-2.4,2.1-4.9,4-7.7,5.6
	c-3.3,1.9-6.8,3.3-10.4,4.5c-2.1,0.6-4.2,1.1-6.3,1.4c-3.2,0.5-6.5,0.6-9.6,0.4c-4.4-0.3-8.7-1.2-12.8-2.7
	c-4.4-1.6-8.5-3.9-12.3-6.7c-2.3-1.7-4.3-3.7-6.3-5.8c-2.3-2.4-4.1-5.1-5.7-7.8c-2.5-4.2-4.2-8.7-5.3-13.5c-0.4-1.9-0.6-3.8-0.9-5.8
	c-0.2-2.3-0.1-4.5-0.1-6.7c0-0.1,0-0.2,0-0.4c0.1-0.6,0.3-1.1,1.2-1.1c27.3,0,54.5,0,81.8,0c1.2,0,1.2,0,1-1.1
	c-0.9-6.4-3.3-12.1-7-17.3c-1.2-1.6-2.5-3.2-3.9-4.6c-2.5-2.4-5.3-4.4-8.3-6.2c-3.8-2.2-7.9-3.5-12.1-4.3c-3-0.6-6.3-0.6-9.4-0.4
	c-5.2,0.4-10,1.8-14.7,4.3c-2.6,1.4-5,3.1-7.2,5.1c-4.1,3.6-7.1,7.8-9.4,12.5c-0.5,1.1-1,2.2-1.4,3.2c-0.1,0.4-0.2,0.5-0.6,0.5
	c-2.5,0-5.1,0-7.7,0c-0.5,0-0.6-0.1-0.4-0.6c1.3-4.9,3.5-9.3,6.3-13.3c1.9-3,4.3-5.7,7-8.1c3.6-3.2,7.4-5.8,11.8-7.9
	c3.8-1.7,7.8-2.9,11.8-3.6c1.3-0.2,2.7-0.4,4.1-0.4c0.1,0,0.4,0.1,0.4-0.1C144.5,228.3,146.5,228.3,148.7,228.3z"/>
<path fill="#84843A" d="M217.5,228.3c0.4,0.6,1.1,1.3,1.7,1.9c1.8,1.9,3.8,3.8,5.6,5.8c2.3,2.4,4.5,4.8,6.8,7.2
	c2.1,2.3,4.2,4.4,6.3,6.7c2.3,2.3,4.3,4.6,6.6,7c2.2,2.3,4.3,4.5,6.5,6.7c2.3,2.4,4.4,4.6,6.7,7c2.1,2.2,4.1,4.3,6.2,6.5
	c2.3,2.5,4.6,4.9,6.9,7.2c1.9,1.9,3.8,4.1,5.7,6c2.5,2.5,4.9,5.1,7.2,7.7c2.1,2.3,4.2,4.4,6.4,6.7c1,1.1,1.9,2.2,3.1,3.3
	c0-26.8,0-53.3,0-79.9c2.9,0,5.7,0,8.6,0c0,30.6,0,61.1,0,91.8c0,1-0.2,1.2-1.2,1.2c-2.1-0.1-4.1-0.1-6.3,0
	c-1.3,0.1-1.9-0.5-2.7-1.4c-0.2-0.3-0.4-0.6-0.8-1c-1.8-1.9-3.8-3.8-5.6-5.8c-2.2-2.3-4.3-4.5-6.5-6.7c-2.3-2.3-4.4-4.6-6.6-7
	c-2.2-2.3-4.3-4.6-6.5-6.8c-2.3-2.3-4.3-4.6-6.6-7c-2.2-2.3-4.3-4.6-6.5-6.8c-2.2-2.3-4.3-4.6-6.5-6.9c-2.2-2.3-4.3-4.6-6.5-6.9
	s-4.3-4.6-6.5-6.8c-2.3-2.4-4.5-4.8-6.8-7.2c-2.1-2.2-4.1-4.3-6.2-6.5c-1-1-1.8-1.9-3-3c0,0.5,0,0.9,0,1.2c0,25.9,0,51.7,0,77.6
	c0,1-0.2,1.2-1.1,1.1c-2.3-0.1-4.4-0.1-6.6,0c-0.8,0-1-0.1-1-1c0-9.5,0-19.1,0-28.6c0-21.2,0-42.2,0-63.4
	C211.6,228.3,214.6,228.3,217.5,228.3z"/>
<path fill="#ED881D" d="M478.7,228.4c0,0.4,0,0.8,0,1.2c0,30.1,0,60.2,0,90.4c0,1-0.2,1.2-1.2,1.2c-2.2-0.1-4.3-0.1-6.5,0
	c-0.6,0-1-0.2-0.8-0.9c0-0.2,0-0.4,0-0.6c0-27,0-54.1,0-81.1c0-1.7,0-1.7-1.7-1.7c-18.8,0-37.6,0-56.4,0c-0.9,0-1.1-0.1-1.1-1
	c0.1-2.5,0-5,0-7.4C433.7,228.4,456.2,228.4,478.7,228.4C478.7,228.3,478.7,228.4,478.7,228.4z"/>
<path fill="#36929A" d="M39.9,228.3c0,0.4,0.1,0.8,0.1,1.1c0,27.1,0,54.2,0,81.4c0,0.6-0.4,1.4,0.1,1.8c0.4,0.3,1.2,0.1,1.8,0.1
	c18.7,0,37.5,0,56.1,0c0.9,0,1.1,0.2,1.1,1.1c-0.1,2.2-0.1,4.3,0,6.5c0,0.8-0.1,1-1,1c-4.3-0.1-8.6,0-13,0c-17.4,0-34.7,0-52,0
	c-1.4,0-1.4,0-1.4-1.4c0-30,0-60,0-90c0-0.4,0-0.8,0-1.2c0-0.1,0.1-0.1,0.1-0.1C34.4,228.3,37.2,228.3,39.9,228.3z"/>
<path fill="#ED881D" d="M504.1,236.7c-5.4,0-10.7,0-16.1,0c-0.6,0-0.9-0.1-0.9-0.9c0.1-2.5,0-5.1,0-7.6c5.4,0,10.9,0,16.2,0
	c0.5,0,0.6,0.1,0.6,0.6C504.1,231.5,504.1,234.1,504.1,236.7z"/>
<path fill="#36929A" d="M6.3,312.6c5.4,0,10.7,0,16.1,0c0.6,0,1,0.1,0.9,0.9c-0.1,2.3-0.1,4.5,0,6.8c0,0.6-0.2,0.9-0.9,0.9
	c-5.4,0-10.7,0-16.1,0C6.3,318.3,6.3,315.4,6.3,312.6z"/>
</svg>
